<svg id="Camada_1" data-name="Camada 1" xmlns="http://www.w3.org/2000/svg" viewBox="0 0 400 236.07"><title>Moto</title><path d="M394.43,228.92a65,65,0,0,0-30,7.33l-19.32-30.57h0l-19-33.18L301.35,124H260v6.56h37.34l16.76,32.78H260c-29.35,0-39.34,24.58-41.85,32.79H89.51v6.56c59.62,0,98.61,12.89,115.87,38.32,14.71,21.66,8.6,46.37,6.37,53.48h-20.6a65.7,65.7,0,1,0-.34,6.56h83.82L345,217.84l13.72,21.7a65.49,65.49,0,1,0,35.67-10.62ZM125.57,353.51a59,59,0,1,1,59-59H122.3v6.56h61.9A59.08,59.08,0,0,1,125.57,353.51Zm146-59h-53c2.34-8.21,5.85-26.42-1.52-45.17h92.71Zm43.77-51.72H214.06a58.19,58.19,0,0,0-3.21-5.38c-11.17-16.49-30.42-28.09-57.52-34.7h70l.52-2.64c.25-1.23,6.37-30.15,36.13-30.15h57.11l24.15,42.26Zm79.06,110.74a59,59,0,0,1-32.18-108.43l26.12,41.33,5.55-3.51-26-41.08a59,59,0,1,1,26.48,111.69Z" transform="translate(-60 -124)"/></svg>